<svg width="87" height="24" viewBox="0 0 87 24" fill="none" xmlns="http://www.w3.org/2000/svg">
<path d="M14.7771 0.798828C13.6037 0.798828 12.6724 1.81669 12.637 3.04832C12.6354 3.06132 12.6346 3.07441 12.6347 3.08751V3.09993V3.10041C12.6346 3.10701 12.6337 3.11339 12.6337 3.12C12.6335 3.13021 12.6338 3.14042 12.6347 3.15059L12.6318 4.634C12.6316 4.65616 12.6339 4.67827 12.6385 4.69995C12.6385 4.70042 12.6385 4.7009 12.6385 4.70138C12.6599 5.38302 12.9051 6.00854 13.3013 6.48969C12.886 6.98723 12.6351 7.6414 12.6275 8.35541C12.6255 8.36998 12.6245 8.38467 12.6246 8.39938L12.6146 13.6951C12.6146 13.6957 12.6146 13.6964 12.6146 13.697C12.6146 13.6977 12.6146 13.6983 12.6146 13.6989V13.7391C12.6145 13.7567 12.6159 13.7743 12.6189 13.7916C12.6189 13.7923 12.6189 13.7929 12.6189 13.7936C12.6331 14.5805 12.9401 15.2951 13.4399 15.8031C12.923 16.3255 12.608 17.0698 12.6084 17.8791V17.8796C12.6074 17.8895 12.607 17.8994 12.607 17.9092L12.5998 21.6757C12.5998 21.6768 12.5998 21.6779 12.5998 21.679C12.5998 21.6795 12.5998 21.68 12.5998 21.6805V21.7187C12.5996 21.7371 12.601 21.7555 12.6041 21.7737C12.6503 22.9949 13.5771 24.0002 14.7432 24.0002C15.4741 24.0002 16.1108 23.6043 16.4966 23.009C16.6171 23.0663 16.7412 23.1173 16.8727 23.1538C18.1924 23.5206 19.5312 22.6338 19.8562 21.2274C19.8693 21.1704 19.8781 21.1134 19.8877 21.0563C21.0687 21.5019 22.4256 20.9916 23.0767 19.7913C23.5947 18.8364 23.5542 17.6971 23.058 16.8084C23.3985 16.5032 23.6896 16.1223 23.9073 15.6753C24.7252 13.9954 24.2539 11.9431 22.8468 10.8723C23.0196 10.4932 23.1206 10.0699 23.1206 9.62072C23.1206 8.23722 22.1936 7.06498 20.9572 6.8335C21.4739 5.50188 21.1056 3.9193 19.977 3.03036C19.3226 2.51498 18.5299 2.34186 17.7844 2.47551C17.476 2.5308 17.177 2.64133 16.8979 2.79906C16.7532 1.68261 15.87 0.799049 14.777 0.799049L14.7771 0.798828ZM12.1428 0.803129C11.4081 0.809423 10.6757 0.885432 9.95544 1.03013L9.95688 1.03109L9.95735 1.03156C9.96671 1.05087 9.97579 1.07031 9.9846 1.08987L9.99081 1.10516C10.2218 1.65947 10.2235 2.2828 9.99533 2.8383C9.76721 3.39381 9.32797 3.83609 8.77406 4.06806C8.22024 4.29985 7.59709 4.30247 7.04134 4.07534C6.4856 3.84822 6.04265 3.4099 5.8097 2.85657C5.79932 2.83 5.78944 2.80323 5.78007 2.77628C4.53239 3.61895 3.46051 4.69624 2.62412 5.94814C3.11107 6.1872 3.49614 6.59296 3.70942 7.09175L3.71611 7.10752C3.94698 7.66177 3.94853 8.28498 3.72041 8.84037C3.4923 9.39576 3.05315 9.83796 2.49936 10.0699C1.98758 10.2835 1.41528 10.302 0.890751 10.122C0.585724 11.6329 0.584586 13.1895 0.887406 14.7008C0.911259 14.6891 0.935317 14.6778 0.959568 14.6669C1.51251 14.4331 2.13563 14.4281 2.6922 14.6532C3.24877 14.8783 3.69333 15.3149 3.92834 15.8674L3.93503 15.8831C4.16574 16.4373 4.16721 17.0604 3.93911 17.6157C3.711 18.171 3.27195 18.6131 2.71828 18.845C2.68888 18.8563 2.65924 18.867 2.62939 18.8771C3.48442 20.1476 4.58235 21.2365 5.85997 22.081C6.09171 21.5472 6.51983 21.1231 7.05568 20.8963C7.60868 20.6623 8.23192 20.6573 8.78861 20.8824C9.34529 21.1074 9.78993 21.5442 10.0249 22.0967L10.0316 22.1125C10.2541 22.6492 10.262 23.2509 10.0536 23.7933C10.7425 23.9236 11.4419 23.9913 12.143 23.9954V17.1491C11.2292 17.1264 10.3414 16.8405 9.58588 16.326C8.8304 15.8114 8.23933 15.0899 7.88352 14.2479C7.39493 13.0875 7.38673 11.7807 7.86071 10.6143C8.33468 9.44787 9.25211 8.51719 10.4116 8.02652C10.9605 7.79603 11.5479 7.67071 12.143 7.6571V0.80297L12.1428 0.803129ZM14.7771 1.41054C15.6108 1.41054 16.3092 2.15756 16.3092 3.11998C16.3088 3.1551 16.3145 3.19002 16.326 3.22321C16.1602 3.38087 16.0073 3.55853 15.8748 3.76086C15.8522 3.79446 15.8365 3.83221 15.8287 3.87191C15.8208 3.91162 15.8208 3.9525 15.8289 3.99218C15.8369 4.03186 15.8527 4.06955 15.8754 4.10307C15.8982 4.13658 15.9273 4.16526 15.9612 4.18743C15.995 4.2096 16.033 4.22482 16.0728 4.23222C16.1126 4.23962 16.1535 4.23904 16.193 4.23053C16.2326 4.22201 16.2701 4.20572 16.3033 4.1826C16.3366 4.15948 16.3649 4.13 16.3866 4.09586C17.1433 2.94033 18.5563 2.6895 19.5986 3.51042C20.641 4.33137 20.8886 5.95776 20.132 7.11341C19.7018 7.77039 19.0556 8.12751 18.39 8.16911C18.3233 8.17328 18.2563 8.17035 18.1893 8.16815C18.1741 7.45727 17.8975 6.7558 17.3654 6.24412C17.6657 5.78685 17.8453 5.23154 17.851 4.63406C17.8517 4.59371 17.8444 4.55361 17.8295 4.51608C17.8147 4.47855 17.7926 4.44433 17.7644 4.41539C17.7363 4.38646 17.7027 4.36338 17.6656 4.34748C17.6285 4.33159 17.5886 4.3232 17.5482 4.32279C17.5079 4.32238 17.4678 4.32996 17.4304 4.3451C17.393 4.36023 17.3589 4.38263 17.3302 4.41098C17.3015 4.43934 17.2787 4.4731 17.2631 4.51033C17.2474 4.54755 17.2394 4.58749 17.2392 4.62785C17.2275 5.87191 16.3125 6.83672 15.222 6.82429C14.1315 6.81188 13.2337 5.82556 13.2454 4.58151C13.2456 4.5713 13.2453 4.5611 13.2445 4.55092C13.2442 4.54885 13.2439 4.54678 13.2435 4.54471L13.2459 3.24959L13.2464 3.09953C13.2564 2.14719 13.9494 1.41054 14.7771 1.41054ZM16.9726 6.71752C17.7095 7.46075 17.7825 8.74586 17.1179 9.58352C17.065 9.6501 17.0096 9.7117 16.9516 9.76847C16.9252 9.79423 16.8966 9.81543 16.8694 9.83919C16.8481 9.80888 16.8287 9.77722 16.8063 9.74791C16.4065 9.22549 15.8221 8.86688 15.1427 8.80071C15.1327 8.79958 15.1227 8.79894 15.1126 8.7988C15.0332 8.79753 14.9563 8.82722 14.8984 8.88158C14.8405 8.93594 14.806 9.01071 14.8022 9.09006C14.7984 9.16941 14.8256 9.24713 14.8781 9.30676C14.9306 9.36639 15.0042 9.40326 15.0834 9.40956C16.082 9.5068 16.8457 10.4866 16.7532 11.6289C16.7388 11.8075 16.7042 11.978 16.6524 12.1384C16.6391 12.1768 16.6336 12.2176 16.6363 12.2582C16.6389 12.2988 16.6496 12.3385 16.6678 12.3749C16.686 12.4113 16.7113 12.4437 16.7421 12.4702C16.773 12.4968 16.8088 12.5169 16.8476 12.5294C16.8863 12.5419 16.9271 12.5465 16.9677 12.543C17.0082 12.5395 17.0477 12.528 17.0837 12.5091C17.1197 12.4902 17.1516 12.4642 17.1775 12.4328C17.2034 12.4014 17.2228 12.3652 17.2345 12.3262C17.3008 12.1209 17.3448 11.9038 17.363 11.6782C17.3999 11.2229 17.3272 10.7818 17.1685 10.3869C17.3234 10.2661 17.4679 10.1258 17.5967 9.96345C17.8762 9.61125 18.0557 9.20343 18.1386 8.78018C18.8517 8.81137 19.5631 8.55877 20.1234 8.05664C20.1718 8.01326 20.2188 7.96798 20.2648 7.92092C20.403 7.77974 20.5303 7.62213 20.6438 7.44875C20.6523 7.43581 20.6589 7.42211 20.6672 7.40908C21.687 7.49673 22.509 8.43595 22.509 9.62033C22.509 9.94013 22.4485 10.2428 22.3399 10.5159C22.3356 10.5265 22.3299 10.536 22.3255 10.5465C21.9585 10.36 21.574 10.2455 21.1876 10.2072C20.8133 10.1702 20.4391 10.2039 20.0794 10.2971C19.963 9.97164 19.7437 9.68566 19.4337 9.49943C19.3813 9.46702 19.3204 9.4512 19.2588 9.45403C19.1929 9.45711 19.1298 9.48141 19.0788 9.52332C19.0279 9.56523 18.9918 9.62249 18.9761 9.68656C18.9603 9.75063 18.9657 9.81807 18.9914 9.87883C19.0171 9.93958 19.0618 9.99039 19.1188 10.0237C19.5222 10.266 19.6865 10.8563 19.4543 11.3212C19.418 11.3939 19.375 11.4583 19.3272 11.5142C19.2997 11.5446 19.2786 11.5801 19.2651 11.6187C19.2516 11.6574 19.246 11.6983 19.2486 11.7392C19.2512 11.78 19.262 11.8199 19.2803 11.8565C19.2986 11.8931 19.3241 11.9256 19.3552 11.9522C19.3863 11.9788 19.4224 11.9988 19.4615 12.0112C19.5005 12.0236 19.5416 12.028 19.5823 12.0242C19.6231 12.0204 19.6626 12.0084 19.6987 11.989C19.7347 11.9697 19.7665 11.9432 19.7922 11.9114C19.8729 11.817 19.9433 11.7111 20.0015 11.5945C20.1113 11.3747 20.1663 11.1389 20.1735 10.9049C20.8298 10.7174 21.543 10.7851 22.1931 11.1658C23.5664 11.9701 24.102 13.8777 23.3573 15.4072C22.9882 16.1653 22.3834 16.6787 21.7047 16.9102C21.3993 17.0144 21.0967 16.9865 20.7714 16.8165C20.446 16.6466 20.1057 16.3238 19.7983 15.8435C19.7968 15.8411 19.7952 15.8387 19.7936 15.8364C20.2223 15.4971 20.5086 14.9598 20.5338 14.3539C20.5361 14.3131 20.5301 14.2722 20.5163 14.2337C20.5025 14.1952 20.4811 14.1599 20.4534 14.1298C20.4257 14.0997 20.3922 14.0755 20.355 14.0586C20.3177 14.0417 20.2775 14.0324 20.2366 14.0313C20.1556 14.0291 20.077 14.0592 20.0181 14.115C19.9592 14.1707 19.9249 14.2475 19.9226 14.3286C19.8912 15.0825 19.3258 15.6311 18.682 15.5988C18.5814 15.5938 18.4849 15.5748 18.3929 15.5439C18.3548 15.5311 18.3145 15.5259 18.2744 15.5286C18.2343 15.5314 18.1952 15.542 18.1592 15.5599C18.1232 15.5778 18.0911 15.6026 18.0647 15.6329C18.0383 15.6632 18.0181 15.6984 18.0053 15.7365C17.9925 15.7746 17.9873 15.8148 17.9901 15.8549C17.9928 15.895 18.0034 15.9341 18.0213 15.9701C18.0392 16.0061 18.064 16.0382 18.0943 16.0646C18.1246 16.0911 18.1598 16.1112 18.1979 16.124C18.3418 16.1724 18.4941 16.2017 18.6514 16.2096C18.8633 16.2202 19.0666 16.1888 19.2574 16.1259C19.2646 16.1424 19.2732 16.1583 19.2832 16.1733C19.6332 16.7201 20.039 17.1243 20.488 17.3589C20.937 17.5935 21.437 17.6481 21.9021 17.4894C22.1302 17.4116 22.3495 17.3056 22.5582 17.1778C22.9153 17.8732 22.939 18.7617 22.5391 19.499C21.9842 20.522 20.8669 20.8805 19.9239 20.406C19.8575 19.303 19.1586 18.3154 18.1069 18.0141C18.19 17.5066 18.0869 16.9655 17.7801 16.5173C17.7517 16.4746 17.713 16.4396 17.6676 16.4158C17.6221 16.3919 17.5714 16.3798 17.5201 16.3807C17.4766 16.3814 17.4338 16.3913 17.3945 16.4099C17.3552 16.4284 17.3203 16.4551 17.2921 16.4882C17.2639 16.5214 17.2432 16.5601 17.2311 16.6018C17.2191 16.6436 17.2161 16.6875 17.2224 16.7305C17.2238 16.7406 17.2257 16.7507 17.2281 16.7606C17.2372 16.7973 17.2531 16.832 17.2749 16.8629C17.6801 17.4545 17.5653 18.3133 17.0355 18.7496C16.9526 18.8179 16.8658 18.8716 16.7765 18.9121C16.7383 18.9276 16.7036 18.9506 16.6746 18.9798C16.6455 19.009 16.6226 19.0438 16.6073 19.0821C16.592 19.1204 16.5846 19.1613 16.5856 19.2025C16.5865 19.2437 16.5958 19.2843 16.6128 19.3218C16.6298 19.3594 16.6542 19.3931 16.6846 19.4209C16.7149 19.4488 16.7506 19.4702 16.7895 19.484C16.8283 19.4977 16.8695 19.5034 16.9107 19.5008C16.9518 19.4982 16.992 19.4874 17.0288 19.4689C17.1675 19.4059 17.3009 19.3236 17.4245 19.2218C17.6368 19.0469 17.8014 18.8321 17.9196 18.5957C17.9215 18.5964 17.9234 18.597 17.9253 18.5976C18.8999 18.8685 19.5161 19.9797 19.2596 21.0895C19.0673 21.9218 18.4612 22.4874 17.759 22.604C17.7005 22.6137 17.6414 22.6207 17.5817 22.6241C17.4624 22.6308 17.3407 22.6244 17.219 22.6045C17.1581 22.5945 17.0973 22.5812 17.0364 22.5643C16.9398 22.5375 16.8485 22.4999 16.7597 22.4577C16.8408 22.213 16.8868 21.9512 16.8868 21.6788C16.8878 21.5989 16.8575 21.5217 16.8023 21.4639C16.7472 21.4061 16.6716 21.3721 16.5917 21.3693C16.5119 21.3665 16.4341 21.3951 16.375 21.4489C16.3159 21.5027 16.2803 21.5775 16.2756 21.6573C16.2752 21.6644 16.275 21.6716 16.2751 21.6788C16.2751 22.581 15.661 23.294 14.8973 23.3796C14.8464 23.3853 14.7951 23.3882 14.743 23.3882C13.9097 23.3882 13.212 22.6419 13.2113 21.6802C13.2113 21.6797 13.2113 21.6792 13.2113 21.6788L13.2185 18.0215C13.2194 18.0089 13.2196 17.9963 13.2189 17.9837C13.1662 16.7604 14.0048 15.751 15.0703 15.6659C15.1871 15.9821 15.3811 16.2706 15.6524 16.4941C15.776 16.5959 15.9089 16.6787 16.0476 16.7416C16.0843 16.7589 16.1241 16.7688 16.1646 16.7706C16.2052 16.7724 16.2456 16.7661 16.2837 16.7521C16.3218 16.7381 16.3567 16.7166 16.3864 16.689C16.4161 16.6614 16.4401 16.6281 16.4568 16.5912C16.4735 16.5542 16.4827 16.5143 16.4839 16.4737C16.4851 16.4332 16.4781 16.3928 16.4635 16.3549C16.449 16.3171 16.427 16.2825 16.3989 16.2532C16.3708 16.224 16.3372 16.2006 16.2999 16.1844C16.2107 16.1439 16.1238 16.0902 16.0409 16.0219C15.5111 15.5855 15.3963 14.7268 15.8015 14.1352C15.834 14.089 15.8532 14.0348 15.8568 13.9785C15.8604 13.9221 15.8484 13.8659 15.822 13.8159C15.7957 13.766 15.756 13.7244 15.7074 13.6956C15.6588 13.6668 15.6032 13.6521 15.5468 13.653C15.4972 13.6538 15.4485 13.6666 15.4049 13.6904C15.3614 13.7143 15.3243 13.7483 15.2968 13.7897C15.0343 14.173 14.9208 14.6244 14.9451 15.0647C14.5738 15.106 14.2286 15.2295 13.9233 15.4188C13.4937 15.0078 13.217 14.3946 13.2261 13.7051L13.2309 11.0882L13.2361 8.43625C13.2366 8.42814 13.2368 8.42001 13.2366 8.41188C13.2311 7.83577 13.4237 7.31261 13.7389 6.91749C14.1551 7.23751 14.6621 7.42971 15.2146 7.436C15.8926 7.44374 16.5066 7.16819 16.9723 6.71773L16.9726 6.71752Z" fill="url(#paint0_linear_183_3)"/>
<path d="M81.8848 20.0938C80.6934 20.0938 79.6549 19.8659 78.7695 19.4102C77.8776 18.9609 77.1842 18.3229 76.6895 17.4961C76.1947 16.6693 75.9473 15.696 75.9473 14.5762C75.9473 13.5671 76.1556 12.6589 76.5723 11.8516C76.9824 11.0443 77.5684 10.4095 78.3301 9.94727C79.0983 9.48503 79.9902 9.25391 81.0059 9.25391C81.39 9.25391 81.7969 9.30273 82.2266 9.40039C82.6562 9.49154 83.0404 9.62826 83.3789 9.81055C83.724 9.99284 83.9518 10.2207 84.0625 10.4941L84.4629 9.45898H86.5918V13.7754H83.7695C83.7174 13.2546 83.5645 12.8477 83.3105 12.5547C83.0566 12.2617 82.7409 12.1152 82.3633 12.1152C81.8034 12.1152 81.377 12.2943 81.084 12.6523C80.791 13.0039 80.6445 13.6517 80.6445 14.5957C80.6445 15.2467 80.7617 15.7611 80.9961 16.1387C81.237 16.5098 81.5462 16.7767 81.9238 16.9395C82.3079 17.0957 82.7148 17.1738 83.1445 17.1738C83.6133 17.1738 84.1211 17.0924 84.668 16.9297C85.2148 16.7604 85.6999 16.4967 86.123 16.1387L86.2695 16.2363V18.9609C86.2695 18.987 86.071 19.0977 85.6738 19.293C85.2767 19.4948 84.7493 19.6803 84.0918 19.8496C83.4342 20.0124 82.6986 20.0938 81.8848 20.0938Z" fill="black"/>
<path d="M71.1035 8.43359C70.2897 8.43359 69.6191 8.24154 69.0918 7.85742C68.5645 7.47331 68.3008 6.91992 68.3008 6.19727C68.3008 5.47461 68.5645 4.92773 69.0918 4.55664C69.6191 4.18555 70.2962 4 71.123 4C71.9499 4 72.6204 4.18229 73.1348 4.54688C73.6556 4.91146 73.916 5.46159 73.916 6.19727C73.916 6.91992 73.6491 7.47331 73.1152 7.85742C72.5879 8.24154 71.9173 8.43359 71.1035 8.43359ZM74.6973 16.9785V19.918H67.5V16.9785H68.7598V12.4766H67.5V10.0742L73.4375 9.45898V16.9785H74.6973Z" fill="black"/>
<path d="M62.9785 20.0938C60.472 20.0938 59.2188 18.7884 59.2188 16.1777V12.3203H57.6562V9.45898H59.2188V7.22266L63.8965 6.17773V9.45898H65.7715V12.3203H63.8965V15.8359C63.8965 16.1289 64.0072 16.373 64.2285 16.5684C64.4499 16.7637 64.7266 16.8613 65.0586 16.8613C65.2995 16.8613 65.5371 16.8418 65.7715 16.8027V19.5176C64.9121 19.9017 63.9811 20.0938 62.9785 20.0938Z" fill="black"/>
<path d="M54.9902 19.918H47.4902V16.9785H48.75V12.4766H47.4902V9.83984L53.4277 9.25391V10.9531C53.6361 10.6276 53.9421 10.3379 54.3457 10.084C54.7493 9.82357 55.179 9.62174 55.6348 9.47852C56.097 9.32878 56.5104 9.25391 56.875 9.25391V13.3945C56.1133 13.1406 55.485 13.0137 54.9902 13.0137C54.3652 13.0137 53.9486 13.196 53.7402 13.5605C53.5319 13.9186 53.4277 14.3906 53.4277 14.9766V16.9785H54.9902V19.918Z" fill="black"/>
<path d="M36.8555 16.4805V19.918H30V16.4805H31.543L34.2188 7.81836H32.1777V4.38086H41.8555L45.3223 16.4805H46.8555V19.918H38.1152V16.4805H39.3848L38.9648 14.8203H35.4395L35 16.4805H36.8555ZM38.4961 12.457L37.3633 7.70117L35.9375 12.457H38.4961Z" fill="black"/>
<defs>
<linearGradient id="paint0_linear_183_3" x1="0.661133" y1="0.798828" x2="24.3085" y2="0.798828" gradientUnits="userSpaceOnUse">
<stop stop-color="#EF4136"/>
<stop offset="1" stop-color="#FBB040"/>
</linearGradient>
</defs>
</svg>
